<mxfile host="app.diagrams.net" agent="Mozilla/5.0 (Macintosh; Intel Mac OS X 10_15_7) AppleWebKit/537.36 (KHTML, like Gecko) Chrome/127.0.0.0 Safari/537.36" version="24.7.13">
  <diagram name="PÃ¡gina-1" id="SWf02cU8E8wHekjmgpM7">
    <mxGraphModel dx="1619" dy="819" grid="1" gridSize="10" guides="1" tooltips="1" connect="1" arrows="1" fold="1" page="1" pageScale="1" pageWidth="827" pageHeight="1169" math="0" shadow="0">
      <root>
        <mxCell id="0" />
        <mxCell id="1" parent="0" />
        <mxCell id="kr7s3pCepPWFzVEK6p3T-68" style="edgeStyle=orthogonalEdgeStyle;rounded=0;orthogonalLoop=1;jettySize=auto;html=1;exitX=1;exitY=1;exitDx=0;exitDy=0;entryX=0.5;entryY=0;entryDx=0;entryDy=0;" edge="1" parent="1" source="kr7s3pCepPWFzVEK6p3T-45" target="kr7s3pCepPWFzVEK6p3T-67">
          <mxGeometry relative="1" as="geometry" />
        </mxCell>
        <mxCell id="kr7s3pCepPWFzVEK6p3T-72" style="edgeStyle=orthogonalEdgeStyle;rounded=0;orthogonalLoop=1;jettySize=auto;html=1;exitX=0.5;exitY=1;exitDx=0;exitDy=0;" edge="1" parent="1" source="kr7s3pCepPWFzVEK6p3T-45">
          <mxGeometry relative="1" as="geometry">
            <mxPoint x="280" y="340" as="targetPoint" />
          </mxGeometry>
        </mxCell>
        <mxCell id="kr7s3pCepPWFzVEK6p3T-45" value="NGINX" style="rounded=0;whiteSpace=wrap;html=1;" vertex="1" parent="1">
          <mxGeometry x="80" y="200" width="400" height="60" as="geometry" />
        </mxCell>
        <mxCell id="kr7s3pCepPWFzVEK6p3T-69" style="edgeStyle=orthogonalEdgeStyle;rounded=0;orthogonalLoop=1;jettySize=auto;html=1;exitX=0.5;exitY=1;exitDx=0;exitDy=0;" edge="1" parent="1" source="kr7s3pCepPWFzVEK6p3T-46">
          <mxGeometry relative="1" as="geometry">
            <mxPoint x="760" y="340" as="targetPoint" />
          </mxGeometry>
        </mxCell>
        <mxCell id="kr7s3pCepPWFzVEK6p3T-71" style="edgeStyle=orthogonalEdgeStyle;rounded=0;orthogonalLoop=1;jettySize=auto;html=1;exitX=0;exitY=1;exitDx=0;exitDy=0;entryX=0.5;entryY=0;entryDx=0;entryDy=0;" edge="1" parent="1" source="kr7s3pCepPWFzVEK6p3T-46" target="kr7s3pCepPWFzVEK6p3T-70">
          <mxGeometry relative="1" as="geometry">
            <Array as="points">
              <mxPoint x="560" y="320" />
              <mxPoint x="280" y="320" />
            </Array>
          </mxGeometry>
        </mxCell>
        <mxCell id="kr7s3pCepPWFzVEK6p3T-46" value="NGINX" style="rounded=0;whiteSpace=wrap;html=1;" vertex="1" parent="1">
          <mxGeometry x="560" y="200" width="400" height="60" as="geometry" />
        </mxCell>
        <mxCell id="kr7s3pCepPWFzVEK6p3T-65" style="edgeStyle=orthogonalEdgeStyle;rounded=0;orthogonalLoop=1;jettySize=auto;html=1;exitX=1;exitY=1;exitDx=0;exitDy=0;exitPerimeter=0;" edge="1" parent="1" source="kr7s3pCepPWFzVEK6p3T-48" target="kr7s3pCepPWFzVEK6p3T-46">
          <mxGeometry relative="1" as="geometry" />
        </mxCell>
        <mxCell id="kr7s3pCepPWFzVEK6p3T-66" style="edgeStyle=orthogonalEdgeStyle;rounded=0;orthogonalLoop=1;jettySize=auto;html=1;exitX=0;exitY=1;exitDx=0;exitDy=0;exitPerimeter=0;entryX=0.5;entryY=0;entryDx=0;entryDy=0;" edge="1" parent="1" source="kr7s3pCepPWFzVEK6p3T-48" target="kr7s3pCepPWFzVEK6p3T-45">
          <mxGeometry relative="1" as="geometry" />
        </mxCell>
        <mxCell id="kr7s3pCepPWFzVEK6p3T-48" value="USER" style="shape=umlActor;verticalLabelPosition=bottom;verticalAlign=top;html=1;outlineConnect=0;" vertex="1" parent="1">
          <mxGeometry x="510" y="80" width="30" height="40" as="geometry" />
        </mxCell>
        <mxCell id="kr7s3pCepPWFzVEK6p3T-79" style="edgeStyle=orthogonalEdgeStyle;rounded=0;orthogonalLoop=1;jettySize=auto;html=1;exitX=1;exitY=1;exitDx=0;exitDy=0;entryX=0.5;entryY=0;entryDx=0;entryDy=0;" edge="1" parent="1" source="kr7s3pCepPWFzVEK6p3T-59" target="kr7s3pCepPWFzVEK6p3T-74">
          <mxGeometry relative="1" as="geometry" />
        </mxCell>
        <mxCell id="kr7s3pCepPWFzVEK6p3T-81" style="edgeStyle=orthogonalEdgeStyle;rounded=0;orthogonalLoop=1;jettySize=auto;html=1;exitX=0.5;exitY=1;exitDx=0;exitDy=0;" edge="1" parent="1" source="kr7s3pCepPWFzVEK6p3T-59" target="kr7s3pCepPWFzVEK6p3T-73">
          <mxGeometry relative="1" as="geometry" />
        </mxCell>
        <mxCell id="kr7s3pCepPWFzVEK6p3T-109" style="edgeStyle=orthogonalEdgeStyle;rounded=0;orthogonalLoop=1;jettySize=auto;html=1;exitX=0;exitY=0.5;exitDx=0;exitDy=0;entryX=0.5;entryY=1;entryDx=0;entryDy=0;" edge="1" parent="1" source="kr7s3pCepPWFzVEK6p3T-59" target="kr7s3pCepPWFzVEK6p3T-102">
          <mxGeometry relative="1" as="geometry" />
        </mxCell>
        <mxCell id="kr7s3pCepPWFzVEK6p3T-110" style="edgeStyle=orthogonalEdgeStyle;rounded=0;orthogonalLoop=1;jettySize=auto;html=1;exitX=0;exitY=0.5;exitDx=0;exitDy=0;entryX=0.5;entryY=1;entryDx=0;entryDy=0;" edge="1" parent="1" source="kr7s3pCepPWFzVEK6p3T-59" target="kr7s3pCepPWFzVEK6p3T-103">
          <mxGeometry relative="1" as="geometry" />
        </mxCell>
        <mxCell id="kr7s3pCepPWFzVEK6p3T-173" style="edgeStyle=orthogonalEdgeStyle;rounded=0;orthogonalLoop=1;jettySize=auto;html=1;exitX=1;exitY=1;exitDx=0;exitDy=0;" edge="1" parent="1" source="kr7s3pCepPWFzVEK6p3T-59">
          <mxGeometry relative="1" as="geometry">
            <mxPoint x="1310" y="620" as="targetPoint" />
          </mxGeometry>
        </mxCell>
        <mxCell id="kr7s3pCepPWFzVEK6p3T-174" style="edgeStyle=orthogonalEdgeStyle;rounded=0;orthogonalLoop=1;jettySize=auto;html=1;exitX=1;exitY=1;exitDx=0;exitDy=0;entryX=0.5;entryY=0;entryDx=0;entryDy=0;" edge="1" parent="1" source="kr7s3pCepPWFzVEK6p3T-59" target="kr7s3pCepPWFzVEK6p3T-152">
          <mxGeometry relative="1" as="geometry" />
        </mxCell>
        <mxCell id="kr7s3pCepPWFzVEK6p3T-59" value="API" style="rounded=0;whiteSpace=wrap;html=1;" vertex="1" parent="1">
          <mxGeometry x="80" y="480" width="400" height="60" as="geometry" />
        </mxCell>
        <mxCell id="kr7s3pCepPWFzVEK6p3T-80" style="edgeStyle=orthogonalEdgeStyle;rounded=0;orthogonalLoop=1;jettySize=auto;html=1;exitX=0;exitY=1;exitDx=0;exitDy=0;entryX=0.5;entryY=0;entryDx=0;entryDy=0;" edge="1" parent="1" source="kr7s3pCepPWFzVEK6p3T-60" target="kr7s3pCepPWFzVEK6p3T-73">
          <mxGeometry relative="1" as="geometry">
            <Array as="points">
              <mxPoint x="560" y="600" />
              <mxPoint x="280" y="600" />
            </Array>
          </mxGeometry>
        </mxCell>
        <mxCell id="kr7s3pCepPWFzVEK6p3T-82" style="edgeStyle=orthogonalEdgeStyle;rounded=0;orthogonalLoop=1;jettySize=auto;html=1;exitX=0.5;exitY=1;exitDx=0;exitDy=0;entryX=0.5;entryY=0;entryDx=0;entryDy=0;" edge="1" parent="1" source="kr7s3pCepPWFzVEK6p3T-60" target="kr7s3pCepPWFzVEK6p3T-74">
          <mxGeometry relative="1" as="geometry" />
        </mxCell>
        <mxCell id="kr7s3pCepPWFzVEK6p3T-171" style="edgeStyle=orthogonalEdgeStyle;rounded=0;orthogonalLoop=1;jettySize=auto;html=1;exitX=1;exitY=1;exitDx=0;exitDy=0;entryX=0.5;entryY=0;entryDx=0;entryDy=0;" edge="1" parent="1" source="kr7s3pCepPWFzVEK6p3T-60" target="kr7s3pCepPWFzVEK6p3T-151">
          <mxGeometry relative="1" as="geometry" />
        </mxCell>
        <mxCell id="kr7s3pCepPWFzVEK6p3T-172" style="edgeStyle=orthogonalEdgeStyle;rounded=0;orthogonalLoop=1;jettySize=auto;html=1;exitX=1;exitY=1;exitDx=0;exitDy=0;entryX=0.5;entryY=0;entryDx=0;entryDy=0;" edge="1" parent="1" source="kr7s3pCepPWFzVEK6p3T-60" target="kr7s3pCepPWFzVEK6p3T-152">
          <mxGeometry relative="1" as="geometry" />
        </mxCell>
        <mxCell id="kr7s3pCepPWFzVEK6p3T-60" value="API" style="rounded=0;whiteSpace=wrap;html=1;" vertex="1" parent="1">
          <mxGeometry x="560" y="480" width="400" height="60" as="geometry" />
        </mxCell>
        <mxCell id="kr7s3pCepPWFzVEK6p3T-76" style="edgeStyle=orthogonalEdgeStyle;rounded=0;orthogonalLoop=1;jettySize=auto;html=1;exitX=0;exitY=1;exitDx=0;exitDy=0;entryX=0.5;entryY=0;entryDx=0;entryDy=0;" edge="1" parent="1" source="kr7s3pCepPWFzVEK6p3T-67" target="kr7s3pCepPWFzVEK6p3T-59">
          <mxGeometry relative="1" as="geometry">
            <Array as="points">
              <mxPoint x="560" y="460" />
              <mxPoint x="280" y="460" />
            </Array>
          </mxGeometry>
        </mxCell>
        <mxCell id="kr7s3pCepPWFzVEK6p3T-78" style="edgeStyle=orthogonalEdgeStyle;rounded=0;orthogonalLoop=1;jettySize=auto;html=1;exitX=0.5;exitY=1;exitDx=0;exitDy=0;entryX=0.5;entryY=0;entryDx=0;entryDy=0;" edge="1" parent="1" source="kr7s3pCepPWFzVEK6p3T-67" target="kr7s3pCepPWFzVEK6p3T-60">
          <mxGeometry relative="1" as="geometry" />
        </mxCell>
        <mxCell id="kr7s3pCepPWFzVEK6p3T-184" style="edgeStyle=orthogonalEdgeStyle;rounded=0;orthogonalLoop=1;jettySize=auto;html=1;exitX=1;exitY=1;exitDx=0;exitDy=0;entryX=0.5;entryY=0;entryDx=0;entryDy=0;" edge="1" parent="1" source="kr7s3pCepPWFzVEK6p3T-67" target="kr7s3pCepPWFzVEK6p3T-141">
          <mxGeometry relative="1" as="geometry" />
        </mxCell>
        <mxCell id="kr7s3pCepPWFzVEK6p3T-185" style="edgeStyle=orthogonalEdgeStyle;rounded=0;orthogonalLoop=1;jettySize=auto;html=1;exitX=1;exitY=1;exitDx=0;exitDy=0;entryX=0.5;entryY=0;entryDx=0;entryDy=0;" edge="1" parent="1" source="kr7s3pCepPWFzVEK6p3T-67" target="kr7s3pCepPWFzVEK6p3T-144">
          <mxGeometry relative="1" as="geometry" />
        </mxCell>
        <mxCell id="kr7s3pCepPWFzVEK6p3T-67" value="Web Service" style="rounded=0;whiteSpace=wrap;html=1;" vertex="1" parent="1">
          <mxGeometry x="560" y="340" width="400" height="60" as="geometry" />
        </mxCell>
        <mxCell id="kr7s3pCepPWFzVEK6p3T-75" style="edgeStyle=orthogonalEdgeStyle;rounded=0;orthogonalLoop=1;jettySize=auto;html=1;exitX=1;exitY=1;exitDx=0;exitDy=0;entryX=0.5;entryY=0;entryDx=0;entryDy=0;" edge="1" parent="1" source="kr7s3pCepPWFzVEK6p3T-70" target="kr7s3pCepPWFzVEK6p3T-60">
          <mxGeometry relative="1" as="geometry" />
        </mxCell>
        <mxCell id="kr7s3pCepPWFzVEK6p3T-77" style="edgeStyle=orthogonalEdgeStyle;rounded=0;orthogonalLoop=1;jettySize=auto;html=1;exitX=0.5;exitY=1;exitDx=0;exitDy=0;entryX=0.5;entryY=0;entryDx=0;entryDy=0;" edge="1" parent="1" source="kr7s3pCepPWFzVEK6p3T-70" target="kr7s3pCepPWFzVEK6p3T-59">
          <mxGeometry relative="1" as="geometry" />
        </mxCell>
        <mxCell id="kr7s3pCepPWFzVEK6p3T-70" value="Web Service" style="rounded=0;whiteSpace=wrap;html=1;" vertex="1" parent="1">
          <mxGeometry x="80" y="340" width="400" height="60" as="geometry" />
        </mxCell>
        <mxCell id="kr7s3pCepPWFzVEK6p3T-73" value="DataBase 1" style="rounded=0;whiteSpace=wrap;html=1;" vertex="1" parent="1">
          <mxGeometry x="80" y="620" width="400" height="60" as="geometry" />
        </mxCell>
        <mxCell id="kr7s3pCepPWFzVEK6p3T-74" value="DataBase 2" style="rounded=0;whiteSpace=wrap;html=1;" vertex="1" parent="1">
          <mxGeometry x="560" y="620" width="400" height="60" as="geometry" />
        </mxCell>
        <mxCell id="kr7s3pCepPWFzVEK6p3T-101" value="" style="rounded=0;whiteSpace=wrap;html=1;" vertex="1" parent="1">
          <mxGeometry x="90" y="740" width="120" height="180" as="geometry" />
        </mxCell>
        <mxCell id="kr7s3pCepPWFzVEK6p3T-102" value="" style="rounded=0;whiteSpace=wrap;html=1;" vertex="1" parent="1">
          <mxGeometry x="230" y="740" width="120" height="180" as="geometry" />
        </mxCell>
        <mxCell id="kr7s3pCepPWFzVEK6p3T-103" value="" style="rounded=0;whiteSpace=wrap;html=1;" vertex="1" parent="1">
          <mxGeometry x="370" y="740" width="120" height="180" as="geometry" />
        </mxCell>
        <mxCell id="kr7s3pCepPWFzVEK6p3T-105" value="" style="rounded=0;whiteSpace=wrap;html=1;" vertex="1" parent="1">
          <mxGeometry x="510" y="740" width="120" height="180" as="geometry" />
        </mxCell>
        <mxCell id="kr7s3pCepPWFzVEK6p3T-106" value="" style="rounded=0;whiteSpace=wrap;html=1;" vertex="1" parent="1">
          <mxGeometry x="650" y="740" width="120" height="180" as="geometry" />
        </mxCell>
        <mxCell id="kr7s3pCepPWFzVEK6p3T-107" value="" style="rounded=0;whiteSpace=wrap;html=1;" vertex="1" parent="1">
          <mxGeometry x="790" y="740" width="120" height="180" as="geometry" />
        </mxCell>
        <mxCell id="kr7s3pCepPWFzVEK6p3T-113" value="" style="endArrow=none;dashed=1;html=1;rounded=0;" edge="1" parent="1">
          <mxGeometry width="50" height="50" relative="1" as="geometry">
            <mxPoint x="34.29" y="330" as="sourcePoint" />
            <mxPoint x="1015.7185714285714" y="330" as="targetPoint" />
          </mxGeometry>
        </mxCell>
        <mxCell id="kr7s3pCepPWFzVEK6p3T-114" value="FIREWALL" style="edgeLabel;html=1;align=center;verticalAlign=middle;resizable=0;points=[];" vertex="1" connectable="0" parent="kr7s3pCepPWFzVEK6p3T-113">
          <mxGeometry x="-0.2774" y="-4" relative="1" as="geometry">
            <mxPoint x="131" as="offset" />
          </mxGeometry>
        </mxCell>
        <mxCell id="kr7s3pCepPWFzVEK6p3T-115" value="NODE - onde serÃ£o armazenados os blocos com informaÃ§Ã£o sobre os ficheiros dos utilizadores" style="text;html=1;align=center;verticalAlign=middle;whiteSpace=wrap;rounded=0;" vertex="1" parent="1">
          <mxGeometry x="40" y="1010" width="550" height="30" as="geometry" />
        </mxCell>
        <mxCell id="kr7s3pCepPWFzVEK6p3T-116" value="DATABASE - para guardar informaÃ§Ã£o sobre os metadados dos ficheiros" style="text;html=1;align=center;verticalAlign=middle;whiteSpace=wrap;rounded=0;" vertex="1" parent="1">
          <mxGeometry x="60" y="970" width="400" height="30" as="geometry" />
        </mxCell>
        <mxCell id="kr7s3pCepPWFzVEK6p3T-118" value="NODE 1" style="rounded=0;whiteSpace=wrap;html=1;" vertex="1" parent="1">
          <mxGeometry x="90" y="740" width="120" height="30" as="geometry" />
        </mxCell>
        <mxCell id="kr7s3pCepPWFzVEK6p3T-119" value="NODE 2" style="rounded=0;whiteSpace=wrap;html=1;" vertex="1" parent="1">
          <mxGeometry x="230" y="740" width="120" height="30" as="geometry" />
        </mxCell>
        <mxCell id="kr7s3pCepPWFzVEK6p3T-120" value="NODE 3" style="rounded=0;whiteSpace=wrap;html=1;" vertex="1" parent="1">
          <mxGeometry x="370" y="740" width="120" height="30" as="geometry" />
        </mxCell>
        <mxCell id="kr7s3pCepPWFzVEK6p3T-121" value="hardware" style="rounded=0;whiteSpace=wrap;html=1;" vertex="1" parent="1">
          <mxGeometry x="100" y="780" width="100" height="20" as="geometry" />
        </mxCell>
        <mxCell id="kr7s3pCepPWFzVEK6p3T-122" value="Sistema operativo" style="rounded=0;whiteSpace=wrap;html=1;" vertex="1" parent="1">
          <mxGeometry x="100" y="810" width="100" height="20" as="geometry" />
        </mxCell>
        <mxCell id="kr7s3pCepPWFzVEK6p3T-123" value="API" style="rounded=0;whiteSpace=wrap;html=1;" vertex="1" parent="1">
          <mxGeometry x="100" y="840" width="100" height="20" as="geometry" />
        </mxCell>
        <mxCell id="kr7s3pCepPWFzVEK6p3T-124" value="" style="rounded=0;whiteSpace=wrap;html=1;" vertex="1" parent="1">
          <mxGeometry x="100" y="870" width="100" height="20" as="geometry" />
        </mxCell>
        <mxCell id="kr7s3pCepPWFzVEK6p3T-137" style="edgeStyle=orthogonalEdgeStyle;rounded=0;orthogonalLoop=1;jettySize=auto;html=1;exitX=1;exitY=1;exitDx=0;exitDy=0;entryX=0.5;entryY=0;entryDx=0;entryDy=0;" edge="1" parent="1" source="kr7s3pCepPWFzVEK6p3T-141" target="kr7s3pCepPWFzVEK6p3T-152">
          <mxGeometry relative="1" as="geometry" />
        </mxCell>
        <mxCell id="kr7s3pCepPWFzVEK6p3T-138" style="edgeStyle=orthogonalEdgeStyle;rounded=0;orthogonalLoop=1;jettySize=auto;html=1;exitX=0.5;exitY=1;exitDx=0;exitDy=0;" edge="1" parent="1" source="kr7s3pCepPWFzVEK6p3T-141" target="kr7s3pCepPWFzVEK6p3T-151">
          <mxGeometry relative="1" as="geometry" />
        </mxCell>
        <mxCell id="kr7s3pCepPWFzVEK6p3T-175" style="edgeStyle=orthogonalEdgeStyle;rounded=0;orthogonalLoop=1;jettySize=auto;html=1;exitX=0;exitY=1;exitDx=0;exitDy=0;" edge="1" parent="1" source="kr7s3pCepPWFzVEK6p3T-141">
          <mxGeometry relative="1" as="geometry">
            <mxPoint x="760" y="620" as="targetPoint" />
            <Array as="points">
              <mxPoint x="1110" y="600" />
              <mxPoint x="760" y="600" />
            </Array>
          </mxGeometry>
        </mxCell>
        <mxCell id="kr7s3pCepPWFzVEK6p3T-176" style="edgeStyle=orthogonalEdgeStyle;rounded=0;orthogonalLoop=1;jettySize=auto;html=1;exitX=0;exitY=1;exitDx=0;exitDy=0;entryX=0.5;entryY=0;entryDx=0;entryDy=0;" edge="1" parent="1" source="kr7s3pCepPWFzVEK6p3T-141" target="kr7s3pCepPWFzVEK6p3T-73">
          <mxGeometry relative="1" as="geometry">
            <Array as="points">
              <mxPoint x="1110" y="600" />
              <mxPoint x="280" y="600" />
            </Array>
          </mxGeometry>
        </mxCell>
        <mxCell id="kr7s3pCepPWFzVEK6p3T-180" style="edgeStyle=orthogonalEdgeStyle;rounded=0;orthogonalLoop=1;jettySize=auto;html=1;exitX=1;exitY=0.5;exitDx=0;exitDy=0;entryX=0.5;entryY=1;entryDx=0;entryDy=0;" edge="1" parent="1" source="kr7s3pCepPWFzVEK6p3T-141" target="kr7s3pCepPWFzVEK6p3T-169">
          <mxGeometry relative="1" as="geometry" />
        </mxCell>
        <mxCell id="kr7s3pCepPWFzVEK6p3T-181" style="edgeStyle=orthogonalEdgeStyle;rounded=0;orthogonalLoop=1;jettySize=auto;html=1;exitX=1;exitY=0.5;exitDx=0;exitDy=0;entryX=0.5;entryY=1;entryDx=0;entryDy=0;" edge="1" parent="1" source="kr7s3pCepPWFzVEK6p3T-141" target="kr7s3pCepPWFzVEK6p3T-168">
          <mxGeometry relative="1" as="geometry" />
        </mxCell>
        <mxCell id="kr7s3pCepPWFzVEK6p3T-141" value="API" style="rounded=0;whiteSpace=wrap;html=1;" vertex="1" parent="1">
          <mxGeometry x="1110" y="480" width="400" height="60" as="geometry" />
        </mxCell>
        <mxCell id="kr7s3pCepPWFzVEK6p3T-142" style="edgeStyle=orthogonalEdgeStyle;rounded=0;orthogonalLoop=1;jettySize=auto;html=1;exitX=0;exitY=1;exitDx=0;exitDy=0;entryX=0.5;entryY=0;entryDx=0;entryDy=0;" edge="1" parent="1" source="kr7s3pCepPWFzVEK6p3T-144" target="kr7s3pCepPWFzVEK6p3T-151">
          <mxGeometry relative="1" as="geometry">
            <Array as="points">
              <mxPoint x="1590" y="600" />
              <mxPoint x="1310" y="600" />
            </Array>
          </mxGeometry>
        </mxCell>
        <mxCell id="kr7s3pCepPWFzVEK6p3T-143" style="edgeStyle=orthogonalEdgeStyle;rounded=0;orthogonalLoop=1;jettySize=auto;html=1;exitX=0.5;exitY=1;exitDx=0;exitDy=0;entryX=0.5;entryY=0;entryDx=0;entryDy=0;" edge="1" parent="1" source="kr7s3pCepPWFzVEK6p3T-144" target="kr7s3pCepPWFzVEK6p3T-152">
          <mxGeometry relative="1" as="geometry" />
        </mxCell>
        <mxCell id="kr7s3pCepPWFzVEK6p3T-177" style="edgeStyle=orthogonalEdgeStyle;rounded=0;orthogonalLoop=1;jettySize=auto;html=1;exitX=0;exitY=1;exitDx=0;exitDy=0;entryX=0.5;entryY=0;entryDx=0;entryDy=0;" edge="1" parent="1" source="kr7s3pCepPWFzVEK6p3T-144" target="kr7s3pCepPWFzVEK6p3T-73">
          <mxGeometry relative="1" as="geometry">
            <Array as="points">
              <mxPoint x="1590" y="600" />
              <mxPoint x="280" y="600" />
            </Array>
          </mxGeometry>
        </mxCell>
        <mxCell id="kr7s3pCepPWFzVEK6p3T-178" style="edgeStyle=orthogonalEdgeStyle;rounded=0;orthogonalLoop=1;jettySize=auto;html=1;exitX=0;exitY=1;exitDx=0;exitDy=0;" edge="1" parent="1" source="kr7s3pCepPWFzVEK6p3T-144">
          <mxGeometry relative="1" as="geometry">
            <mxPoint x="760" y="620" as="targetPoint" />
            <Array as="points">
              <mxPoint x="1590" y="600" />
              <mxPoint x="760" y="600" />
            </Array>
          </mxGeometry>
        </mxCell>
        <mxCell id="kr7s3pCepPWFzVEK6p3T-182" style="edgeStyle=orthogonalEdgeStyle;rounded=0;orthogonalLoop=1;jettySize=auto;html=1;exitX=1;exitY=0.5;exitDx=0;exitDy=0;entryX=0.5;entryY=1;entryDx=0;entryDy=0;" edge="1" parent="1" source="kr7s3pCepPWFzVEK6p3T-144" target="kr7s3pCepPWFzVEK6p3T-107">
          <mxGeometry relative="1" as="geometry" />
        </mxCell>
        <mxCell id="kr7s3pCepPWFzVEK6p3T-183" style="edgeStyle=orthogonalEdgeStyle;rounded=0;orthogonalLoop=1;jettySize=auto;html=1;exitX=1;exitY=0.5;exitDx=0;exitDy=0;entryX=0.5;entryY=1;entryDx=0;entryDy=0;" edge="1" parent="1" source="kr7s3pCepPWFzVEK6p3T-144" target="kr7s3pCepPWFzVEK6p3T-106">
          <mxGeometry relative="1" as="geometry" />
        </mxCell>
        <mxCell id="kr7s3pCepPWFzVEK6p3T-144" value="API" style="rounded=0;whiteSpace=wrap;html=1;" vertex="1" parent="1">
          <mxGeometry x="1590" y="480" width="400" height="60" as="geometry" />
        </mxCell>
        <mxCell id="kr7s3pCepPWFzVEK6p3T-151" value="DataBase 1" style="rounded=0;whiteSpace=wrap;html=1;" vertex="1" parent="1">
          <mxGeometry x="1110" y="620" width="400" height="60" as="geometry" />
        </mxCell>
        <mxCell id="kr7s3pCepPWFzVEK6p3T-152" value="DataBase 2" style="rounded=0;whiteSpace=wrap;html=1;" vertex="1" parent="1">
          <mxGeometry x="1590" y="620" width="400" height="60" as="geometry" />
        </mxCell>
        <mxCell id="kr7s3pCepPWFzVEK6p3T-168" value="" style="rounded=0;whiteSpace=wrap;html=1;" vertex="1" parent="1">
          <mxGeometry x="930" y="740" width="120" height="180" as="geometry" />
        </mxCell>
        <mxCell id="kr7s3pCepPWFzVEK6p3T-169" value="" style="rounded=0;whiteSpace=wrap;html=1;" vertex="1" parent="1">
          <mxGeometry x="1070" y="740" width="120" height="180" as="geometry" />
        </mxCell>
        <mxCell id="kr7s3pCepPWFzVEK6p3T-170" value="" style="rounded=0;whiteSpace=wrap;html=1;" vertex="1" parent="1">
          <mxGeometry x="1210" y="740" width="120" height="180" as="geometry" />
        </mxCell>
        <mxCell id="kr7s3pCepPWFzVEK6p3T-179" style="edgeStyle=orthogonalEdgeStyle;rounded=0;orthogonalLoop=1;jettySize=auto;html=1;exitX=1;exitY=0.5;exitDx=0;exitDy=0;entryX=0.5;entryY=1;entryDx=0;entryDy=0;" edge="1" parent="1" source="kr7s3pCepPWFzVEK6p3T-141" target="kr7s3pCepPWFzVEK6p3T-170">
          <mxGeometry relative="1" as="geometry">
            <Array as="points">
              <mxPoint x="1530" y="510" />
              <mxPoint x="1530" y="940" />
              <mxPoint x="1270" y="940" />
            </Array>
          </mxGeometry>
        </mxCell>
        <mxCell id="kr7s3pCepPWFzVEK6p3T-186" value="" style="endArrow=none;dashed=1;html=1;rounded=0;" edge="1" parent="1">
          <mxGeometry width="50" height="50" relative="1" as="geometry">
            <mxPoint x="40" y="460" as="sourcePoint" />
            <mxPoint x="1020" y="460" as="targetPoint" />
          </mxGeometry>
        </mxCell>
        <mxCell id="kr7s3pCepPWFzVEK6p3T-187" value="FIREWALL" style="edgeLabel;html=1;align=center;verticalAlign=middle;resizable=0;points=[];" vertex="1" connectable="0" parent="kr7s3pCepPWFzVEK6p3T-186">
          <mxGeometry x="-0.2774" y="-4" relative="1" as="geometry">
            <mxPoint x="131" as="offset" />
          </mxGeometry>
        </mxCell>
      </root>
    </mxGraphModel>
  </diagram>
</mxfile>
